<?xml version="1.0" encoding="UTF-8" standalone="no"?>
<!-- Created with Inkscape (http://www.inkscape.org/) -->

<svg
   xmlns:dc="http://purl.org/dc/elements/1.1/"
   xmlns:cc="http://creativecommons.org/ns#"
   xmlns:rdf="http://www.w3.org/1999/02/22-rdf-syntax-ns#"
   xmlns:svg="http://www.w3.org/2000/svg"
   xmlns="http://www.w3.org/2000/svg"
   xmlns:sodipodi="http://sodipodi.sourceforge.net/DTD/sodipodi-0.dtd"
   xmlns:inkscape="http://www.inkscape.org/namespaces/inkscape"
   width="210mm"
   height="297mm"
   viewBox="0 0 210 297"
   version="1.1"
   id="svg865"
   inkscape:version="0.92.4 (5da689c313, 2019-01-14)"
   sodipodi:docname="icon.svg">
  <defs
     id="defs859">
    <inkscape:path-effect
       effect="bspline"
       id="path-effect3861-2-8"
       is_visible="true"
       weight="33.333333"
       steps="2"
       helper_size="0"
       apply_no_weight="true"
       apply_with_weight="true"
       only_selected="false" />
    <inkscape:path-effect
       effect="bspline"
       id="path-effect3861-6-7-7"
       is_visible="true"
       weight="33.333333"
       steps="2"
       helper_size="0"
       apply_no_weight="true"
       apply_with_weight="true"
       only_selected="false" />
    <inkscape:path-effect
       effect="bspline"
       id="path-effect3861-6-5-1-9"
       is_visible="true"
       weight="33.333333"
       steps="2"
       helper_size="0"
       apply_no_weight="true"
       apply_with_weight="true"
       only_selected="false" />
  </defs>
  <sodipodi:namedview
     id="base"
     pagecolor="#ffffff"
     bordercolor="#666666"
     borderopacity="1.0"
     inkscape:pageopacity="0.0"
     inkscape:pageshadow="2"
     inkscape:zoom="0.98994949"
     inkscape:cx="306.49835"
     inkscape:cy="434.38039"
     inkscape:document-units="mm"
     inkscape:current-layer="layer1"
     showgrid="false"
     inkscape:window-width="2560"
     inkscape:window-height="1016"
     inkscape:window-x="0"
     inkscape:window-y="27"
     inkscape:window-maximized="1" />
  <metadata
     id="metadata862">
    <rdf:RDF>
      <cc:Work
         rdf:about="">
        <dc:format>image/svg+xml</dc:format>
        <dc:type
           rdf:resource="http://purl.org/dc/dcmitype/StillImage" />
        <dc:title></dc:title>
      </cc:Work>
    </rdf:RDF>
  </metadata>
  <g
     inkscape:label="Layer 1"
     inkscape:groupmode="layer"
     id="layer1">
    <path
       style="display:inline;opacity:0.01000001;fill:#ffffff;stroke-width:0.19811824;fill-opacity:0.95238096;stroke:#ffffff;stroke-opacity:0.95714283"
       d="m 30.598959,186.2383 c 1.33233,-17.23737 4.722194,-29.60811 11.257619,-41.08268 5.917411,-10.38951 13.896408,-18.90119 25.114625,-26.79132 1.285539,-0.90417 2.398595,-1.644 2.473457,-1.64403 0.07468,6.3e-4 -1.856607,1.79472 -4.292126,3.9885 -6.118769,5.51138 -9.851157,9.53888 -14.084763,15.19826 -10.102986,13.50545 -16.08736,29.0473 -18.202737,47.27412 -0.226668,1.95278 -0.391044,3.77438 -0.365434,4.04801 0.04203,0.44595 0.412827,0.16772 3.592122,-2.69326 5.893302,-5.30372 10.639138,-10.9173 16.079048,-19.01883 3.940801,-5.86904 6.784756,-10.71892 16.31641,-27.82492 5.260093,-9.44004 8.623484,-15.10182 11.595567,-19.51947 12.74888,-18.94966 25.498873,-27.628273 42.571603,-28.977507 2.92469,-0.231302 4.15282,-0.170742 7.28582,0.359378 20.44904,3.460402 34.85849,15.547439 43.83321,36.768459 3.71607,8.78671 6.34995,18.37988 8.34169,30.38243 0.21946,1.32054 0.43354,2.54772 0.47681,2.72713 0.0664,0.27754 -0.23127,0.22299 -1.99316,-0.36475 -1.13919,-0.38014 -2.121,-0.6461 -2.18179,-0.59125 -0.0605,0.0533 0.61522,0.96204 1.50215,2.01587 1.12628,1.33815 1.54685,1.97563 1.39446,2.11338 -0.14185,0.12815 -3.34649,0.082 -9.16835,-0.13227 -8.86503,-0.32677 -12.55061,-0.35111 -19.47439,-0.13041 -27.2658,0.87047 -55.95494,6.06465 -82.560885,14.94752 -1.700523,0.56754 -3.127585,0.99269 -3.171246,0.94428 -0.135462,-0.14991 10.166747,-4.48631 14.002173,-5.89354 24.472198,-8.97905 52.531008,-14.07308 86.804308,-15.75919 2.67989,-0.13171 5.73497,-0.25742 6.78904,-0.27874 1.05415,-0.0237 2.01803,-0.095 2.14209,-0.16248 0.29415,-0.16192 -0.73079,-4.85258 -2.05483,-9.40497 -3.00372,-10.32779 -7.43282,-19.65437 -13.33642,-28.08335 -2.00386,-2.86107 -6.81378,-8.32276 -9.3998,-10.6736 -7.09502,-6.44969 -15.24767,-10.521962 -23.79168,-11.883767 -2.88206,-0.459601 -8.28994,-0.539664 -10.83332,-0.161357 -12.82348,1.908535 -23.631519,10.857454 -36.573427,30.282214 -3.09352,4.64312 -4.203079,6.39829 -10.203874,16.14102 -13.95384,22.65501 -19.677042,30.57488 -28.445596,39.3635 -2.193184,2.19818 -2.342326,2.30884 -2.924708,2.16919 -0.591557,-0.14166 -0.64852,-0.0942 -1.581214,1.31329 -0.984965,1.48682 -2.188325,2.53051 -5.397677,4.68155 -0.734413,0.49221 -1.466012,0.98463 -1.625791,1.09422 -0.24924,0.17074 -0.236256,-0.50228 0.09118,-4.74056 z"
       id="path4024"
       inkscape:connector-curvature="0" />
    <path
       style="display:inline;opacity:0.01000001;fill:#ffffff;stroke-width:0.19811824;fill-opacity:0.95238096;stroke:#ffffff;stroke-opacity:0.95714283"
       d="m 30.597494,186.22424 c 1.834936,-23.8347 7.972243,-39.82774 20.861978,-54.36393 2.569181,-2.89731 8.730109,-8.50934 12.082692,-11.00612 2.547211,-1.89702 5.773092,-4.14769 5.933079,-4.13951 0.0499,0.004 -1.98785,1.88445 -4.527968,4.18197 -7.146644,6.46407 -11.772439,11.70927 -16.613475,18.83788 -1.95085,2.87269 -5.570703,9.27166 -6.925324,12.24221 -4.674388,10.25031 -7.495435,20.91177 -8.751498,33.07391 l -0.274699,2.66053 1.221971,-0.95367 c 5.654852,-4.41332 12.683969,-12.45762 18.578829,-21.26215 3.99356,-5.9647 6.543773,-10.31294 16.193216,-27.61051 7.434686,-13.32741 11.055713,-19.16378 15.74572,-25.37918 11.154419,-14.782404 23.255795,-22.103239 38.532405,-23.310497 2.92053,-0.230704 4.15348,-0.170169 7.26322,0.355826 12.93412,2.18879 23.27952,7.720489 31.55006,16.869851 10.17151,11.25232 16.88227,27.59584 20.64737,50.28489 0.21946,1.32054 0.43354,2.54774 0.47681,2.72712 0.0664,0.27756 -0.23127,0.22298 -1.99316,-0.36471 -1.13919,-0.38015 -2.12154,-0.64565 -2.18299,-0.59011 -0.0615,0.0533 0.61771,0.95981 1.50919,2.00961 1.16378,1.37045 1.55734,1.96611 1.3956,2.11231 -0.15123,0.1364 -3.20408,0.0942 -9.27437,-0.12871 -13.8065,-0.50709 -23.70022,-0.24021 -36.69143,0.98959 -21.78231,2.06154 -44.277996,6.83004 -65.244748,13.83017 -1.700542,0.56753 -3.127586,0.9927 -3.171265,0.94429 -0.145595,-0.16136 10.303596,-4.53727 14.608815,-6.11801 21.638058,-7.94486 47.319098,-12.93581 77.243848,-15.01193 4.78591,-0.3321 13.09519,-0.75793 15.78333,-0.80898 1.03631,-0.0168 1.98375,-0.0907 2.10545,-0.15722 0.39019,-0.21468 -1.18867,-6.8158 -2.93256,-12.26049 -2.92056,-9.11821 -7.08551,-17.54853 -12.46248,-25.22566 -1.9137,-2.73228 -6.69458,-8.18775 -9.15287,-10.44429 -7.18361,-6.59411 -15.40536,-10.737052 -24.03864,-12.113099 -2.88204,-0.459602 -8.28995,-0.539665 -10.83333,-0.161358 -12.8293,1.909426 -23.587048,10.817377 -36.57077,30.282347 -3.120308,4.67794 -4.140823,6.29332 -10.865034,17.19823 -6.299976,10.2169 -8.726826,14.02738 -11.929198,18.73062 -5.493984,8.06898 -10.339654,14.05131 -15.856021,19.57566 -2.18536,2.18844 -2.346754,2.30846 -2.926941,2.17627 -0.591163,-0.13452 -0.652667,-0.0824 -1.650522,1.39911 -0.875769,1.30038 -1.365465,1.77581 -3.158505,3.06647 -1.16713,0.84016 -2.563647,1.8111 -3.103345,2.15761 l -0.981307,0.63011 z"
       id="path4026"
       inkscape:connector-curvature="0" />
    <path
       style="display:inline;opacity:1;fill:#ffffff;fill-opacity:0.95238096;stroke:#ffffff;stroke-width:0.19342592;stroke-opacity:0.95714283"
       d="m 30.581302,186.5057 c 0.418326,-5.31154 0.805861,-8.37534 1.611309,-12.73836 4.137805,-22.41352 15.473345,-38.87964 35.602784,-51.71685 0.932413,-0.5946 1.739437,-1.07889 1.793321,-1.07609 0.05403,0.004 -1.996423,1.77355 -4.556279,3.93527 -4.759832,4.01941 -7.56009,6.71616 -10.926596,10.52291 -12.385384,14.00504 -19.337707,30.20138 -21.450251,49.97135 l -0.268413,2.51226 1.229907,-0.8968 c 4.345167,-3.16839 10.112949,-8.96345 14.787319,-14.85719 5.450192,-6.87189 8.478281,-11.56282 20.136345,-31.19407 9.239632,-15.5589 13.95179,-22.31983 20.172989,-28.94402 2.546642,-2.71164 7.478337,-6.95784 10.136346,-8.72748 7.311817,-4.867997 15.404647,-7.569369 24.435877,-8.156778 2.90134,-0.189184 4.09854,-0.126281 7.22025,0.375988 7.81144,1.26241 14.74818,3.675143 20.7149,7.20507 16.625,9.83528 27.04549,28.11219 32.15613,56.40012 0.22593,1.24818 0.44596,2.40813 0.48983,2.57774 0.0682,0.26211 -0.23245,0.20993 -2.01243,-0.35108 -1.15085,-0.36294 -2.14296,-0.61694 -2.20481,-0.56518 -0.0629,0.0475 0.62643,0.90861 1.52952,1.90332 1.17896,1.2984 1.57798,1.86242 1.41529,1.99993 -0.15179,0.12795 -3.23292,0.0785 -9.35908,-0.15235 -13.927,-0.52427 -23.88498,-0.30602 -37.02131,0.81204 -21.85357,1.85965 -44.700479,6.31985 -65.740908,12.83379 -1.686245,0.52186 -3.149331,0.9427 -3.251304,0.93481 -0.280441,-0.0188 2.444599,-1.17602 6.663832,-2.8226 23.590155,-9.20654 51.95385,-14.77338 85.95683,-16.87076 4.82824,-0.29771 15.33085,-0.81157 18.0433,-0.85095 1.04566,-0.0188 -0.12046,0.0618 0,0 0.14653,-0.0747 0.083,-0.69706 -0.19393,-1.90374 -3.00816,-13.07946 -8.98336,-25.60433 -16.80832,-35.23264 -2.00801,-2.47075 -6.32901,-6.91277 -8.5093,-8.74765 -6.94197,-5.84197 -15.29103,-9.71471 -23.71036,-10.99794 -2.90979,-0.44302 -8.367,-0.5379 -10.93226,-0.1886 -12.92633,1.75945 -23.778695,10.15891 -36.802644,28.48439 -3.140848,4.41937 -4.172322,5.95254 -10.894395,16.19316 -3.135109,4.77612 -6.628335,10.03525 -7.762705,11.68699 -7.589716,11.05117 -13.388006,18.07531 -20.16036,24.42283 -2.197949,2.06007 -2.360412,2.17286 -2.946304,2.04604 -0.59698,-0.12927 -0.658857,-0.0813 -1.660878,1.31616 -0.879427,1.22553 -1.371977,1.67299 -3.177044,2.88629 -1.174953,0.78968 -2.580926,1.70221 -3.124377,2.02787 l -0.988117,0.59184 z"
       id="path4028"
       inkscape:connector-curvature="0"
       sodipodi:nodetypes="cccsccccccsccccccccccccscccccccccccccccccsccc" />
    <path
       style="display:inline;opacity:1;vector-effect:none;fill:#ffffff;fill-opacity:0.95238096;stroke:#ffffff;stroke-width:1.56909668px;stroke-linecap:butt;stroke-linejoin:miter;stroke-miterlimit:4;stroke-dasharray:none;stroke-dashoffset:0;stroke-opacity:0.95714283"
       d="m 182.33861,164.30871 c 2.9e-4,2.8e-4 10.02768,0.43289 3.42097,4.32969 -6.60675,3.89688 -18.72515,5.97018 -15.91487,10.82745 2.81031,4.85729 6.23147,8.34294 9.65784,11.36604 -2.39066,-3.38043 -6.3955,-8.67724 -6.06157,-11.74287 0.33389,-3.06569 25.4842,-12.36444 17.2528,-15.03728 l -11.79721,-3.8307 z"
       id="path3835"
       inkscape:connector-curvature="0"
       sodipodi:nodetypes="czzczscc" />
    <path
       style="display:inline;opacity:1;vector-effect:none;fill:#ffffff;fill-opacity:0.95238096;stroke:#ffffff;stroke-width:1.56909668px;stroke-linecap:butt;stroke-linejoin:miter;stroke-miterlimit:4;stroke-dasharray:none;stroke-dashoffset:0;stroke-opacity:0.95714283"
       d="m 178.27601,165.57347 c 0,0 -3.78719,4.51005 -2.79957,6.72999 1.70257,3.8271 9.10092,2.90919 11.8492,4.18406 2.74833,1.27491 4.84309,4.03555 4.84309,4.03555 0,0 -1.35482,-3.49427 -3.72574,-5.31096 -2.37088,-1.81668 -9.03877,-1.37858 -9.88326,-4.22359 -0.84455,-2.84508 3.77888,-6.67981 3.77888,-6.67981 z"
       id="path3838"
       inkscape:connector-curvature="0"
       sodipodi:nodetypes="cazczzcc" />
    <path
       style="display:inline;opacity:1;vector-effect:none;fill:#ffffff;fill-opacity:0.95238096;stroke:#ffffff;stroke-width:1.56909668px;stroke-linecap:butt;stroke-linejoin:miter;stroke-miterlimit:4;stroke-dasharray:none;stroke-dashoffset:0;stroke-opacity:0.95714283"
       d="m 34.330221,186.41188 c 0,0 -18.181423,19.06461 -9.752506,18.04872 8.428899,-1.01589 8.454623,-0.45961 8.454623,-0.45961 l -3.51546,6.66392 c 0,0 4.195256,-4.2344 5.220149,-5.08879 2.573271,-2.14524 1.451866,-7.43388 -7.356426,-3.55093 -8.808292,3.88298 15.899773,-22.86958 15.899773,-22.86958 -2.742376,1.69574 -5.966775,4.83751 -8.950153,7.25627 z"
       id="path3840"
       inkscape:connector-curvature="0"
       sodipodi:nodetypes="czccszcc" />
    <path
       style="display:inline;opacity:1;vector-effect:none;fill:#ffffff;fill-opacity:0.95238096;stroke:#ffffff;stroke-width:1.56909668px;stroke-linecap:butt;stroke-linejoin:miter;stroke-miterlimit:4;stroke-dasharray:none;stroke-dashoffset:0;stroke-opacity:0.95714283"
       d="m 38.021033,182.6658 c 1.897115,1.57585 -10.39352,16.37704 -3.144697,14.9156 7.248824,-1.46148 8.454622,-0.45963 8.454622,-0.45963 l -6.698655,12.6506 c 0,0 7.619491,-9.11759 8.644383,-9.972 2.573272,-2.1452 3.28729,-9.65649 -5.662056,-5.64628 -8.949347,4.01018 -0.934683,-8.91402 0.259277,-10.69208 -3.267572,-0.9609 -0.01501,0.0914 -1.852912,-0.79626 z"
       id="path3840-3"
       inkscape:connector-curvature="0"
       sodipodi:nodetypes="czccszccc" />
    <path
       style="display:inline;opacity:1;vector-effect:none;fill:#ffffff;fill-opacity:0.95238096;stroke:#ffffff;stroke-width:0.26458332px;stroke-linecap:butt;stroke-linejoin:miter;stroke-miterlimit:4;stroke-dasharray:none;stroke-dashoffset:0;stroke-opacity:0.95714283"
       d="m 94.698005,142.49421 c -0.980181,-0.0237 -2.058933,1.07077 -2.188905,2.20882 -0.129972,1.13806 0.688735,2.31889 1.667271,2.34433 0.978536,0.0255 2.124163,-1.11228 2.254041,-2.24984 0.129879,-1.13756 -0.752225,-2.27957 -1.732407,-2.30331 z"
       id="path3859"
       inkscape:connector-curvature="0"
       inkscape:path-effect="#path-effect3861-2-8"
       inkscape:original-d="m 94.796315,141.37624 c -1.078487,1.09424 -2.157238,2.18874 -3.236256,3.2835 0.819372,1.18114 1.638078,2.36197 2.45672,3.54335 1.142063,-1.12632 2.283756,-2.26801 3.425234,-3.40162 -0.88143,-1.14174 -1.763532,-2.28375 -2.645698,-3.42523 z"
       transform="matrix(8.6756355,0.44447529,-0.47072172,9.1879358,-628.18993,-1242.3341)" />
    <path
       style="display:inline;opacity:1;vector-effect:none;fill:#ffffff;fill-opacity:0.95238096;stroke:#ffffff;stroke-width:0.26458332px;stroke-linecap:butt;stroke-linejoin:miter;stroke-miterlimit:4;stroke-dasharray:none;stroke-dashoffset:0;stroke-opacity:0.95714283"
       d="m 94.676462,142.28105 c -0.99097,-0.0135 -2.053529,1.18239 -2.108219,2.32299 -0.05469,1.14061 0.898376,2.22502 1.889565,2.23841 0.991188,0.0134 2.020107,-1.04442 2.074673,-2.18459 0.05457,-1.14018 -0.865048,-2.36325 -1.856019,-2.37681 z"
       id="path3859-7"
       inkscape:connector-curvature="0"
       inkscape:path-effect="#path-effect3861-6-7-7"
       inkscape:original-d="m 94.747936,141.07169 c -1.062425,1.19583 -2.124985,2.39177 -3.187877,3.58805 0.953683,1.08474 1.906745,2.16916 2.859881,3.25403 1.029065,-1.05793 2.057981,-2.11573 3.086579,-3.17321 -0.919275,-1.22303 -1.838893,-2.4461 -2.758583,-3.66887 z"
       transform="matrix(3.1605603,0.16192367,-0.19101012,3.7282932,-116.55045,-412.70709)"
       sodipodi:nodetypes="ccccc" />
    <path
       style="display:inline;opacity:1;vector-effect:none;fill:#ffffff;fill-opacity:0.95238096;stroke:#ffffff;stroke-width:0.26458332px;stroke-linecap:butt;stroke-linejoin:miter;stroke-miterlimit:4;stroke-dasharray:none;stroke-dashoffset:0;stroke-opacity:0.95714283"
       d="m 94.676462,142.28105 c -0.99097,-0.0135 -2.053529,1.18239 -2.108219,2.32299 -0.05469,1.14061 0.898376,2.22502 1.889565,2.23841 0.991188,0.0134 2.020107,-1.04442 2.074673,-2.18459 0.05457,-1.14018 -0.865048,-2.36325 -1.856019,-2.37681 z"
       id="path3859-7-3"
       inkscape:connector-curvature="0"
       inkscape:path-effect="#path-effect3861-6-5-1-9"
       inkscape:original-d="m 94.747936,141.07169 c -1.062425,1.19583 -2.124985,2.39177 -3.187877,3.58805 0.953683,1.08474 1.906745,2.16916 2.859881,3.25403 1.029065,-1.05793 2.057981,-2.11573 3.086579,-3.17321 -0.919275,-1.22303 -1.838893,-2.4461 -2.758583,-3.66887 z"
       transform="matrix(4.4247427,0.22669107,-0.25153268,4.9096219,-293.85514,-581.38128)"
       sodipodi:nodetypes="ccccc" />
    <path
       style="display:inline;opacity:1;vector-effect:none;fill:#ffffff;fill-opacity:0.95238096;stroke:#ffffff;stroke-width:1.56909668px;stroke-linecap:butt;stroke-linejoin:miter;stroke-miterlimit:4;stroke-dasharray:none;stroke-dashoffset:0;stroke-opacity:0.95714283"
       d="m 113.62738,146.75948 12.67296,-37.77501 2.61995,37.71691 -21.89829,-21.60202 32.36851,-4.79434 z"
       id="path3945"
       inkscape:connector-curvature="0" />
    <path
       style="display:inline;opacity:1;vector-effect:none;fill:#000000;fill-opacity:1;stroke:#ffffff;stroke-width:1.56909668px;stroke-linecap:butt;stroke-linejoin:miter;stroke-miterlimit:4;stroke-dasharray:none;stroke-dashoffset:0;stroke-opacity:0.95714283"
       d="m 88.157377,151.06554 c 0,0 -2.366477,4.39991 -1.700129,5.80448 0.666324,1.40457 1.722329,1.79128 3.020621,1.27694 1.298279,-0.51415 1.426782,-2.50122 1.040139,-3.87441 -0.386667,-1.37316 -1.822505,-2.75855 -1.822505,-2.75855 z"
       id="path3947"
       inkscape:connector-curvature="0"
       sodipodi:nodetypes="czzzcc" />
    <path
       style="display:inline;opacity:1;vector-effect:none;fill:#000000;fill-opacity:1;stroke:#ffffff;stroke-width:1.56909668px;stroke-linecap:butt;stroke-linejoin:miter;stroke-miterlimit:4;stroke-dasharray:none;stroke-dashoffset:0;stroke-opacity:0.95714283"
       d="m 87.829072,147.74946 c 0,0 2.366453,-4.39992 1.700105,-5.80446 -0.666336,-1.40452 -1.722354,-1.7913 -3.020621,-1.27695 -1.298316,0.51418 -1.426757,2.50122 -1.040103,3.87442 0.386899,1.37319 1.822493,2.7586 1.822493,2.7586 z"
       id="path3947-0"
       inkscape:connector-curvature="0"
       sodipodi:nodetypes="czzzcc" />
    <path
       style="display:inline;opacity:1;vector-effect:none;fill:#000000;fill-opacity:1;stroke:#ffffff;stroke-width:1.23551095px;stroke-linecap:butt;stroke-linejoin:miter;stroke-miterlimit:4;stroke-dasharray:none;stroke-dashoffset:0;stroke-opacity:0.95714283"
       d="m 90.282898,149.13766 c 0,0 3.464491,1.86337 4.570426,1.33864 1.105971,-0.52485 1.410501,-1.35618 1.005502,-2.37846 -0.404937,-1.02231 -1.969509,-1.12343 -3.050742,-0.81897 -1.08122,0.30425 -2.172106,1.43506 -2.172106,1.43506 z"
       id="path3947-0-9"
       inkscape:connector-curvature="0"
       sodipodi:nodetypes="czzzcc" />
    <path
       style="display:inline;opacity:1;vector-effect:none;fill:#000000;fill-opacity:1;stroke:#ffffff;stroke-width:1.16138053px;stroke-linecap:butt;stroke-linejoin:miter;stroke-miterlimit:4;stroke-dasharray:none;stroke-dashoffset:0;stroke-opacity:0.95714283"
       d="m 85.636584,149.7003 c 0,0 -3.256621,-1.75155 -4.296211,-1.25833 -1.039591,0.49281 -1.325862,1.27481 -0.945163,2.23572 0.380613,0.96097 1.851319,1.05609 2.867696,0.76984 1.016353,-0.28645 2.041774,-1.3489 2.041774,-1.3489 z"
       id="path3947-0-9-3"
       inkscape:connector-curvature="0"
       sodipodi:nodetypes="czzzcc" />
    <path
       style="display:inline;opacity:1;vector-effect:none;fill:#000000;fill-opacity:0.97619045;stroke:#ffffff;stroke-width:1.08222556px;stroke-linecap:butt;stroke-linejoin:miter;stroke-miterlimit:4;stroke-dasharray:none;stroke-dashoffset:0;stroke-opacity:1"
       d="m 154.74331,142.9199 c 0,0 -1.63218,3.03467 -1.17261,4.00341 0.45955,0.96879 1.18792,1.23547 2.08339,0.88073 0.89545,-0.35526 0.98404,-1.7251 0.71707,-2.67227 -0.26682,-0.94708 -1.25703,-1.90259 -1.25703,-1.90259 z"
       id="path3947-6"
       inkscape:connector-curvature="0"
       sodipodi:nodetypes="czzzcc" />
    <path
       style="display:inline;opacity:1;vector-effect:none;fill:#000000;fill-opacity:0.97619045;stroke:#ffffff;stroke-width:1.08222556px;stroke-linecap:butt;stroke-linejoin:miter;stroke-miterlimit:4;stroke-dasharray:none;stroke-dashoffset:0;stroke-opacity:1"
       d="m 154.51686,140.63276 c 0,0 1.6322,-3.03466 1.1726,-4.00334 -0.45956,-0.96879 -1.18793,-1.23556 -2.08337,-0.8808 -0.89548,0.35523 -0.98405,1.72517 -0.71736,2.67227 0.26688,0.94708 1.257,1.9026 1.257,1.9026 z"
       id="path3947-0-0"
       inkscape:connector-curvature="0"
       sodipodi:nodetypes="czzzcc" />
    <path
       style="display:inline;opacity:1;vector-effect:none;fill:#000000;fill-opacity:0.97619045;stroke:#ffffff;stroke-width:0.85214728px;stroke-linecap:butt;stroke-linejoin:miter;stroke-miterlimit:4;stroke-dasharray:none;stroke-dashoffset:0;stroke-opacity:1"
       d="m 156.20933,141.59021 c 0,0 2.3895,1.28521 3.15229,0.92334 0.76282,-0.36176 0.97284,-0.93542 0.69353,-1.64049 -0.27921,-0.70511 -1.3584,-0.77483 -2.10414,-0.56518 -0.74573,0.20996 -1.49821,0.9898 -1.49821,0.9898 z"
       id="path3947-0-9-6"
       inkscape:connector-curvature="0"
       sodipodi:nodetypes="czzzcc" />
    <path
       style="display:inline;opacity:1;vector-effect:none;fill:#000000;fill-opacity:0.97619045;stroke:#ffffff;stroke-width:0.80101877px;stroke-linecap:butt;stroke-linejoin:miter;stroke-miterlimit:4;stroke-dasharray:none;stroke-dashoffset:0;stroke-opacity:1"
       d="m 153.00468,141.97825 c 0,0 -2.24611,-1.20802 -2.96316,-0.86787 -0.71702,0.34043 -0.91445,0.87926 -0.65186,1.54198 0.26255,0.6628 1.27687,0.7284 1.97787,0.53139 0.70098,-0.19749 1.40823,-0.93031 1.40823,-0.93031 z"
       id="path3947-0-9-3-2"
       inkscape:connector-curvature="0"
       sodipodi:nodetypes="czzzcc" />
    <flowRoot
       xml:space="preserve"
       id="flowRoot5024"
       style="font-style:normal;font-weight:normal;font-size:96px;line-height:1.25;font-family:sans-serif;letter-spacing:0px;word-spacing:0px;display:inline;fill:#ffffff;fill-opacity:0.95238096;stroke:#ffffff;stroke-opacity:0.95714283;"
       transform="matrix(0.4964198,0,0,0.4964198,-9.5302368,-29.019798)"><flowRegion
         id="flowRegion5026"
         style="font-size:96px;fill:#ffffff;fill-opacity:0.95238096;stroke:#ffffff;stroke-opacity:0.95714283;"><rect
           id="rect5028"
           width="537.37372"
           height="137.37373"
           x="155.55556"
           y="417.46918"
           style="font-size:96px;fill:#ffffff;fill-opacity:0.95238096;stroke:#ffffff;stroke-opacity:0.95714283;" /></flowRegion><flowPara
         id="flowPara5030"
         style="font-style:normal;font-variant:normal;font-weight:normal;font-stretch:normal;font-size:133.33332825px;font-family:'Chinese Rocks';-inkscape-font-specification:'Chinese Rocks';fill:#ffffff;fill-opacity:0.95238096;stroke:#ffffff;stroke-opacity:0.95714283;">arriéguaA</flowPara></flowRoot>    <text
       xml:space="preserve"
       style="font-style:normal;font-weight:normal;font-size:19.85679245px;line-height:1.25;font-family:sans-serif;letter-spacing:0px;word-spacing:0px;display:inline;fill:#ffffff;fill-opacity:0.95238096;stroke:#ffffff;stroke-width:0.49641979;stroke-opacity:0.95714283;"
       x="114.82543"
       y="231.37219"
       id="text1410"><tspan
         sodipodi:role="line"
         id="tspan1408"
         x="114.82543"
         y="248.9408"
         style="stroke-width:0.49641979;fill:#ffffff;fill-opacity:0.95238096;stroke:#ffffff;stroke-opacity:0.95714283;" /></text>
    <text
       xml:space="preserve"
       style="font-style:normal;font-weight:normal;font-size:47.65629959px;line-height:1.25;font-family:sans-serif;letter-spacing:0px;word-spacing:0px;display:inline;fill:#ffffff;fill-opacity:0.95238096;stroke:#ffffff;stroke-width:0.49641979;stroke-opacity:0.95714283;"
       x="158.95166"
       y="249.42383"
       id="text1414"><tspan
         sodipodi:role="line"
         id="tspan1412"
         x="158.95166"
         y="291.58847"
         style="font-size:47.65629959px;stroke-width:0.49641979;fill:#ffffff;fill-opacity:0.95238096;stroke:#ffffff;stroke-opacity:0.95714283;" /></text>
  </g>
</svg>
