<svg width="2111" height="969" viewBox="0 0 2111 969" fill="none" xmlns="http://www.w3.org/2000/svg">
<path d="M562.869 922.996C644.948 872.059 700.228 823.361 766.541 780.76C928.06 676.999 1077.47 884.915 1233.98 934.583C1310.57 958.89 1367.92 908.835 1416.97 864.736C1484.91 803.653 1551.72 656.772 1671.9 631.582C1796.5 605.463 1921.29 793.423 2034.79 741.849C2109 699.863 2111 490.254 2111 490.254V0H0C0 0 0 737 0 969C0 969 112.955 781.558 256.317 912.881C335.995 985.868 498.528 962.924 562.869 922.996Z" fill="#FA9473"/>
</svg>